<?xml version="1.0" encoding="utf-8"?>
<!-- Generator: Adobe Illustrator 27.5.0, SVG Export Plug-In . SVG Version: 6.00 Build 0)  -->
<svg version="1.1" xmlns="http://www.w3.org/2000/svg" xmlns:xlink="http://www.w3.org/1999/xlink" x="0px" y="0px"
	 viewBox="0 0 500 500" style="enable-background:new 0 0 500 500;" xml:space="preserve">
<g id="BACKGROUND">
</g>
<g id="OBJECTS">
	<g>
		<path style="fill:#FFCE55;" d="M393.899,199.428c0,74.697-63.582,135.254-142.015,135.254
			c-78.432,0-142.014-60.558-142.014-135.254c0-74.701,63.582-135.258,142.014-135.258
			C330.317,64.17,393.899,124.727,393.899,199.428z"/>
		<g>
			<g>
				<path style="fill:#FF8888;" d="M334.209,338.041c10.666-18.668,20.666-37.334,32-55.334c13.334-20.666,27.334-35.333,46-50.667
					c16.666-13.334,42-16,28.666,11.333c-8,16.667-33.332,33.999-34.666,52.667c18,2,39.334-13.334,58-6.668
					c30.666,10.668-20,37.334-25.334,46.668c-6,12,6,8.666,15.334,12.666c13.334,6,16,14.666,3.334,24
					c-18.668,14-50.668,11.334-73.334,12c-12.666,0.666-25.334,0.666-38,0.666"/>
			</g>
			<g>
				<g>
					<path style="fill:#7FC6BA;" d="M381.98,161.747c0-12.75-0.5-26.25,9.5-36c5-4.75,13.5-10.75,20.5-7
						c7.75,4.5,4.25,14,0.75,20.25c-6.5,11-19.5,18-30.25,23.5"/>
				</g>
				<g>
					<path style="fill:#7FC6BA;" d="M368.98,167.747c-6-8-8.75-26.75-4.75-36c4.5-10.75,13.5-4.25,13.5,5c0,7-1.75,14-4.5,20.5
						c-1.5,3.5-3.5,6.75-4,10.5"/>
				</g>
				<g>
					<path style="fill:#7FC6BA;" d="M384.98,192.247c3.25-6.75,6.5-14,11.75-19.5c4.25-4.5,18-15.25,24.75-8.5
						c6,6.25-2.75,16-7.75,19c-6,3.75-13.5,5.5-20.25,7.25c-2.5,0.75-5.75,1-8,2.25"/>
				</g>
				<g>
					<g>
						<path style="fill:#0B3F35;" d="M368.143,283.16c1.923-50.761-0.941-105.519,30.497-148.702
							c0.951-1.306-1.22-2.551-2.158-1.262c-31.695,43.535-28.9,98.785-30.839,149.963
							C365.581,284.773,368.082,284.767,368.143,283.16L368.143,283.16z"/>
					</g>
				</g>
				<g>
					<g>
						<path style="fill:#0B3F35;" d="M371.972,211.124c8.575-15.158,23.378-25.413,37.552-34.884
							c1.333-0.891,0.083-3.058-1.262-2.159c-14.526,9.708-29.663,20.25-38.448,35.782
							C369.019,211.268,371.179,212.527,371.972,211.124L371.972,211.124z"/>
					</g>
				</g>
				<g>
					<g>
						<path style="fill:#0B3F35;" d="M375.432,181.495c-4.738-13.112-7.63-26.901-4-40.669c0.412-1.561-2-2.223-2.41-0.665
							c-3.742,14.195-0.894,28.456,4,41.999C373.564,183.664,375.981,183.015,375.432,181.495L375.432,181.495z"/>
					</g>
				</g>
				<path style="fill:#0B3F35;" d="M410.98,168.747c-1.613,0-1.613,2.5,0,2.5C412.592,171.247,412.592,168.747,410.98,168.747z"/>
				<path style="fill:#0B3F35;" d="M413.48,173.247c-1.613,0-1.613,2.5,0,2.5C415.092,175.747,415.092,173.247,413.48,173.247z"/>
				<path style="fill:#0B3F35;" d="M415.73,168.497c-1.613,0-1.613,2.5,0,2.5C417.342,170.997,417.342,168.497,415.73,168.497z"/>
				<path style="fill:#0B3F35;" d="M405.863,133.613c-0.082-0.083-0.166-0.167-0.25-0.25c-1.141-1.141-2.908,0.627-1.768,1.768
					c0.084,0.084,0.168,0.167,0.25,0.25C405.236,136.522,407.004,134.753,405.863,133.613z"/>
				<path style="fill:#0B3F35;" d="M405.113,125.863c-0.082-0.083-0.166-0.167-0.25-0.25c-1.141-1.141-2.908,0.627-1.768,1.768
					c0.084,0.084,0.168,0.167,0.25,0.25C404.486,128.772,406.254,127.003,405.113,125.863z"/>
				<path style="fill:#0B3F35;" d="M410.23,129.247c-1.613,0-1.613,2.5,0,2.5C411.842,131.747,411.842,129.247,410.23,129.247z"/>
				<path style="fill:#0B3F35;" d="M369.48,132.997c-1.613,0-1.613,2.5,0,2.5C371.092,135.497,371.092,132.997,369.48,132.997z"/>
				<path style="fill:#0B3F35;" d="M373.23,136.497c-1.613,0-1.613,2.5,0,2.5C374.842,138.997,374.842,136.497,373.23,136.497z"/>
				<path style="fill:#0B3F35;" d="M373.23,130.747c-1.613,0-1.613,2.5,0,2.5C374.842,133.247,374.842,130.747,373.23,130.747z"/>
			</g>
			<g>
				<g>
					<g>
						<path style="fill:#27685B;" d="M340.904,395.428c-1.334-32,24.666-74.668,48-94c11.332-9.334,48-36,60-14
							c11.332,20.666-13.334,48-26.668,59.332c-23.332,20-52,36-80,48"/>
					</g>
					<g>
						<g>
							<path style="fill:#0B3F35;" d="M437.343,288.942c-33.254,33.885-67.753,66.729-96.195,104.921
								c-0.965,1.295,1.207,2.539,2.158,1.262c28.31-38.013,62.708-70.69,95.805-104.415
								C440.24,289.559,438.474,287.79,437.343,288.942L437.343,288.942z"/>
						</g>
					</g>
					<g>
						<g>
							<path style="fill:#0B3F35;" d="M350.262,364.239c6.003,4.213,9.415,11.143,16,14.666c1.421,0.761,2.684-1.397,1.262-2.158
								c-6.528-3.494-10.01-10.463-16-14.666C350.2,361.152,348.953,363.321,350.262,364.239L350.262,364.239z"/>
						</g>
					</g>
					<g>
						<g>
							<path style="fill:#0B3F35;" d="M363.343,344.044c5.66,5.694,11.089,11.592,17.334,16.666c1.239,1.007,3.02-0.751,1.768-1.768
								c-6.245-5.074-11.673-10.973-17.334-16.666C363.973,341.132,362.205,342.9,363.343,344.044L363.343,344.044z"/>
						</g>
					</g>
					<g>
						<g>
							<path style="fill:#0B3F35;" d="M378.009,329.378c6.767,6.799,13.279,13.858,20.668,20c1.229,1.022,3.009-0.736,1.767-1.767
								c-7.389-6.143-13.9-13.202-20.668-20C378.638,326.467,376.87,328.234,378.009,329.378L378.009,329.378z"/>
						</g>
					</g>
					<g>
						<g>
							<path style="fill:#0B3F35;" d="M393.343,314.71c6.287,7.053,12.063,14.568,19.334,20.668c1.227,1.028,3.004-0.73,1.767-1.767
								c-7.271-6.1-13.047-13.615-19.334-20.668C394.035,311.736,392.273,313.511,393.343,314.71L393.343,314.71z"/>
						</g>
					</g>
					<g>
						<g>
							<path style="fill:#0B3F35;" d="M409.813,299.791c4.71,7.466,11.981,12.797,18.195,18.919
								c1.148,1.132,2.917-0.635,1.768-1.768c-6.046-5.957-13.223-11.151-17.805-18.413
								C411.114,297.17,408.95,298.423,409.813,299.791L409.813,299.791z"/>
						</g>
					</g>
					<g>
						<g>
							<path style="fill:#0B3F35;" d="M424.009,291.378c4.082,4.187,7.252,9.147,11.334,13.332c1.127,1.156,2.893-0.613,1.768-1.768
								c-4.082-4.187-7.252-9.147-11.334-13.332C424.649,288.454,422.883,290.224,424.009,291.378L424.009,291.378z"/>
						</g>
					</g>
				</g>
				<g>
					<path style="fill:#0B3F35;" d="M332.896,401.428c16-28.668,52.666-48,85.334-50.668c18-1.332,57.332,4,37.332,30
						c-14,19.334-34.666,26-57.332,28.668c-23.334,2.666-44-4-66.668-6.668"/>
				</g>
				<g>
					<g>
						<path style="fill:#7FC6BA;" d="M310.23,387.83c-6-33.334,4.666-82,20.666-110.668c19.334-34,49.334-61.332,90-81.333
							c-4,48.199-11.035,75.333-33.035,112.666C368.529,340.496,337.563,363.162,310.23,387.83"/>
					</g>
					<g>
						<path style="fill:#59A597;" d="M420.668,198.482c0.076-0.882,0.154-1.756,0.228-2.652c-40.666,20.001-70.666,47.333-90,81.333
							c-15.367,27.533-25.18,77.541-20.666,110.668C324.467,360.996,411.416,217.146,420.668,198.482z"/>
					</g>
					<g>
						<g>
							<path style="fill:#27685B;" d="M418.483,197.199c-14.057,26.371-29.301,52.145-44.219,78.033
								c-17.822,30.927-35.737,61.8-53.75,92.615c-3.775,6.458-7.546,12.919-11.363,19.352c-0.825,1.39,1.337,2.647,2.158,1.262
								c32.763-55.212,64.875-110.86,96.447-166.76c4.356-7.712,8.719-15.424,12.885-23.241
								C421.399,197.039,419.242,195.776,418.483,197.199L418.483,197.199z"/>
						</g>
					</g>
					<g>
						<g>
							<path style="fill:#27685B;" d="M326.313,326.496c-0.203,12.08-3.739,23.875-2.666,36c0.084,0.951,0.994,1.547,1.881,1.079
								c7.548-3.979,13.582-9.996,20.666-14.666c1.34-0.883,0.089-3.049-1.262-2.158c-7.077,4.665-13.128,10.691-20.666,14.666
								c0.627,0.359,1.254,0.72,1.881,1.079c-1.072-12.118,2.463-23.922,2.666-36C328.84,324.883,326.34,324.886,326.313,326.496
								L326.313,326.496z"/>
						</g>
					</g>
					<g>
						<g>
							<path style="fill:#27685B;" d="M335.646,300.496c0.035,12.183,0.694,24.416,3.379,36.332c0.14,0.621,0.921,1.107,1.537,0.873
								c8.987-3.39,18.297-5.934,26.965-10.126c1.451-0.701,0.183-2.857-1.262-2.158c-8.47,4.096-17.586,6.561-26.367,9.874
								c0.513,0.291,1.025,0.582,1.537,0.873c-2.636-11.701-3.255-23.707-3.289-35.668
								C338.142,298.884,335.642,298.884,335.646,300.496L335.646,300.496z"/>
						</g>
					</g>
					<g>
						<g>
							<path style="fill:#27685B;" d="M346.313,274.496c0.08,15.138,1.917,30.197,2,45.334c0.005,0.886,1.082,1.641,1.881,1.079
								c9.406-6.603,19.642-11.85,29.334-18c1.357-0.86,0.104-3.025-1.262-2.158c-9.691,6.15-19.928,11.397-29.334,18
								c0.627,0.359,1.254,0.72,1.881,1.079c-0.083-15.137-1.92-30.196-2-45.334C348.804,272.885,346.304,272.884,346.313,274.496
								L346.313,274.496z"/>
						</g>
					</g>
					<g>
						<g>
							<path style="fill:#27685B;" d="M362.98,254.496c0.065,12.696,1.301,25.332,2,38c0.055,0.995,1.008,1.492,1.881,1.079
								c8.568-4.054,16.51-9.203,24.666-14c1.389-0.816,0.131-2.978-1.262-2.158c-8.157,4.797-16.098,9.946-24.666,14
								c0.627,0.359,1.254,0.72,1.881,1.079c-0.699-12.668-1.935-25.304-2-38C365.473,252.885,362.973,252.884,362.98,254.496
								L362.98,254.496z"/>
						</g>
					</g>
					<g>
						<g>
							<path style="fill:#27685B;" d="M377.646,237.163c0.652,9.771,1.294,19.537,1.334,29.333c0.003,0.766,0.805,1.484,1.582,1.205
								c7.86-2.815,16.146-5.129,22.965-10.126c1.286-0.942,0.041-3.113-1.262-2.158c-6.655,4.876-14.695,7.125-22.367,9.874
								c0.527,0.401,1.055,0.804,1.582,1.205c-0.04-9.797-0.682-19.562-1.334-29.333
								C380.04,235.563,377.539,235.552,377.646,237.163L377.646,237.163z"/>
						</g>
					</g>
					<g>
						<g>
							<path style="fill:#27685B;" d="M392.313,221.163c-0.557,7.093,0.672,14.066,2.045,20.999c0.17,0.858,1.156,1.057,1.836,0.747
								c5.234-2.386,9.836-5.887,14.253-9.529c1.245-1.026-0.534-2.785-1.768-1.768c-4.258,3.51-8.704,6.839-13.747,9.137
								c0.612,0.249,1.225,0.498,1.836,0.747c-1.331-6.725-2.494-13.458-1.955-20.335
								C394.938,219.554,392.438,219.566,392.313,221.163L392.313,221.163z"/>
						</g>
					</g>
				</g>
				<path style="fill:#7FC6BA;" d="M366.893,380.66c-3.225,0-3.225,5,0,5C370.117,385.66,370.117,380.66,366.893,380.66z"/>
				<path style="fill:#7FC6BA;" d="M379.56,365.994c-3.225,0-3.225,5,0,5C382.785,370.994,382.785,365.994,379.56,365.994z"/>
				<path style="fill:#7FC6BA;" d="M382.227,385.326c-3.225,0-3.225,5,0,5C385.451,390.326,385.451,385.326,382.227,385.326z"/>
				<path style="fill:#7FC6BA;" d="M398.227,365.994c-3.225,0-3.225,5,0,5C401.451,370.994,401.451,365.994,398.227,365.994z"/>
				<path style="fill:#7FC6BA;" d="M402.227,390.66c-3.225,0-3.225,5,0,5C405.451,395.66,405.451,390.66,402.227,390.66z"/>
				<path style="fill:#7FC6BA;" d="M415.56,362.66c-3.225,0-3.225,5,0,5C418.785,367.66,418.785,362.66,415.56,362.66z"/>
				<path style="fill:#7FC6BA;" d="M422.227,379.326c-3.225,0-3.225,5,0,5C425.451,384.326,425.451,379.326,422.227,379.326z"/>
				<path style="fill:#7FC6BA;" d="M431.56,361.994c-3.225,0-3.225,5,0,5C434.785,366.994,434.785,361.994,431.56,361.994z"/>
				<path style="fill:#7FC6BA;" d="M438.227,380.66c-3.225,0-3.225,5,0,5C441.451,385.66,441.451,380.66,438.227,380.66z"/>
				<path style="fill:#7FC6BA;" d="M451.56,365.326c-3.225,0-3.225,5,0,5C454.785,370.326,454.785,365.326,451.56,365.326z"/>
			</g>
			<g>
				<g>
					<path style="fill:#FF8888;" d="M165.791,338.041c-10.667-18.668-20.667-37.334-32-55.334
						c-13.334-20.666-27.334-35.333-46-50.667c-16.667-13.334-42-16-28.667,11.333c8,16.667,33.333,33.999,34.667,52.667
						c-18,2-39.334-13.334-58-6.668c-30.667,10.668,20,37.334,25.333,46.668c6,12-6,8.666-15.333,12.666
						c-13.334,6-16,14.666-3.334,24c18.667,14,50.667,11.334,73.334,12c12.666,0.666,25.333,0.666,38,0.666"/>
				</g>
				<g>
					<g>
						<path style="fill:#7FC6BA;" d="M118.02,161.747c0-12.75,0.5-26.25-9.5-36c-5-4.75-13.5-10.75-20.5-7
							c-7.75,4.5-4.25,14-0.75,20.25c6.5,11,19.5,18,30.25,23.5"/>
					</g>
					<g>
						<path style="fill:#7FC6BA;" d="M131.02,167.747c6-8,8.75-26.75,4.75-36c-4.5-10.75-13.5-4.25-13.5,5c0,7,1.75,14,4.5,20.5
							c1.5,3.5,3.5,6.75,4,10.5"/>
					</g>
					<g>
						<path style="fill:#7FC6BA;" d="M115.02,192.247c-3.25-6.75-6.5-14-11.75-19.5c-4.25-4.5-18-15.25-24.75-8.5
							c-6,6.25,2.75,16,7.75,19c6,3.75,13.5,5.5,20.25,7.25c2.5,0.75,5.75,1,8,2.25"/>
					</g>
					<g>
						<g>
							<path style="fill:#0B3F35;" d="M134.357,283.16c-1.939-51.178,0.857-106.429-30.838-149.963
								c-0.938-1.29-3.109-0.044-2.158,1.262c31.439,43.183,28.573,97.94,30.496,148.702
								C131.918,284.767,134.418,284.773,134.357,283.16L134.357,283.16z"/>
						</g>
					</g>
					<g>
						<g>
							<path style="fill:#0B3F35;" d="M130.186,209.863c-8.786-15.531-23.922-26.074-38.449-35.782
								c-1.345-0.898-2.595,1.268-1.262,2.159c14.174,9.472,28.977,19.726,37.551,34.884
								C128.821,212.527,130.981,211.268,130.186,209.863L130.186,209.863z"/>
						</g>
					</g>
					<g>
						<g>
							<path style="fill:#0B3F35;" d="M126.979,182.16c4.895-13.544,7.742-27.804,4-41.999c-0.411-1.558-2.822-0.896-2.411,0.665
								c3.63,13.768,0.739,27.557-4,40.669C124.018,183.015,126.435,183.664,126.979,182.16L126.979,182.16z"/>
						</g>
					</g>
					<path style="fill:#0B3F35;" d="M89.02,168.747c1.612,0,1.612,2.5,0,2.5C87.408,171.247,87.408,168.747,89.02,168.747z"/>
					<path style="fill:#0B3F35;" d="M86.52,173.247c1.612,0,1.612,2.5,0,2.5C84.908,175.747,84.908,173.247,86.52,173.247z"/>
					<path style="fill:#0B3F35;" d="M84.27,168.497c1.612,0,1.612,2.5,0,2.5C82.658,170.997,82.658,168.497,84.27,168.497z"/>
					<path style="fill:#0B3F35;" d="M94.136,133.613c0.083-0.083,0.167-0.167,0.25-0.25c1.141-1.141,2.908,0.627,1.768,1.768
						c-0.083,0.084-0.167,0.167-0.25,0.25C94.763,136.522,92.996,134.753,94.136,133.613z"/>
					<path style="fill:#0B3F35;" d="M94.886,125.863c0.083-0.083,0.167-0.167,0.25-0.25c1.141-1.141,2.908,0.627,1.768,1.768
						c-0.083,0.084-0.167,0.167-0.25,0.25C95.513,128.772,93.746,127.003,94.886,125.863z"/>
					<path style="fill:#0B3F35;" d="M89.77,129.247c1.612,0,1.612,2.5,0,2.5C88.158,131.747,88.158,129.247,89.77,129.247z"/>
					<path style="fill:#0B3F35;" d="M130.52,132.997c1.612,0,1.612,2.5,0,2.5C128.908,135.497,128.908,132.997,130.52,132.997z"/>
					<path style="fill:#0B3F35;" d="M126.77,136.497c1.612,0,1.612,2.5,0,2.5S125.158,136.497,126.77,136.497z"/>
					<path style="fill:#0B3F35;" d="M126.77,130.747c1.612,0,1.612,2.5,0,2.5S125.158,130.747,126.77,130.747z"/>
				</g>
				<g>
					<g>
						<g>
							<path style="fill:#27685B;" d="M159.096,395.428c1.333-32-24.667-74.668-48-94c-11.333-9.334-48-36-60-14
								c-11.333,20.666,13.333,48,26.667,59.332c23.333,20,52,36,80,48"/>
						</g>
						<g>
							<g>
								<path style="fill:#0B3F35;" d="M60.889,290.71c33.097,33.725,67.495,66.402,95.804,104.415
									c0.951,1.277,3.123,0.033,2.159-1.262c-28.443-38.191-62.942-71.036-96.196-104.921
									C61.526,287.79,59.759,289.559,60.889,290.71L60.889,290.71z"/>
							</g>
						</g>
						<g>
							<g>
								<path style="fill:#0B3F35;" d="M148.476,362.081c-5.99,4.203-9.471,11.172-16,14.666c-1.422,0.761-0.159,2.919,1.262,2.158
									c6.585-3.523,9.997-10.453,16-14.666C151.047,363.321,149.799,361.152,148.476,362.081L148.476,362.081z"/>
							</g>
						</g>
						<g>
							<g>
								<path style="fill:#0B3F35;" d="M134.889,342.276c-5.66,5.694-11.088,11.592-17.333,16.666
									c-1.252,1.017,0.528,2.774,1.768,1.768c6.245-5.074,11.673-10.972,17.333-16.666
									C137.794,342.899,136.027,341.132,134.889,342.276L134.889,342.276z"/>
							</g>
						</g>
						<g>
							<g>
								<path style="fill:#0B3F35;" d="M120.223,327.61c-6.767,6.799-13.279,13.857-20.667,20c-1.241,1.031,0.538,2.79,1.768,1.767
									c7.388-6.142,13.901-13.201,20.667-20C123.129,328.234,121.361,326.467,120.223,327.61L120.223,327.61z"/>
							</g>
						</g>
						<g>
							<g>
								<path style="fill:#0B3F35;" d="M104.889,312.942c-6.287,7.053-12.062,14.567-19.333,20.668
									c-1.237,1.037,0.542,2.796,1.768,1.767c7.271-6.101,13.046-13.615,19.333-20.668
									C107.726,313.511,105.964,311.736,104.889,312.942L104.889,312.942z"/>
							</g>
						</g>
						<g>
							<g>
								<path style="fill:#0B3F35;" d="M88.028,298.529c-4.582,7.262-11.758,12.456-17.805,18.413
									c-1.15,1.133,0.619,2.899,1.768,1.768c6.214-6.122,13.486-11.453,18.195-18.919
									C91.049,298.423,88.885,297.17,88.028,298.529L88.028,298.529z"/>
							</g>
						</g>
						<g>
							<g>
								<path style="fill:#0B3F35;" d="M74.223,289.61c-4.081,4.185-7.252,9.145-11.334,13.332
									c-1.126,1.154,0.641,2.924,1.768,1.768c4.082-4.186,7.253-9.145,11.334-13.332C77.116,290.224,75.35,288.454,74.223,289.61
									L74.223,289.61z"/>
							</g>
						</g>
					</g>
					<g>
						<path style="fill:#0B3F35;" d="M167.104,401.428c-16-28.668-52.667-48-85.334-50.668c-18-1.332-57.333,4-37.333,30
							c14,19.334,34.667,26,57.333,28.668c23.334,2.666,44-4,66.667-6.668"/>
					</g>
					<g>
						<g>
							<path style="fill:#7FC6BA;" d="M189.77,387.83c6-33.334-4.666-82-20.666-110.668c-19.334-34-49.334-61.332-90-81.333
								c4,48.199,11.034,75.333,33.034,112.666C131.471,340.496,162.437,363.162,189.77,387.83"/>
						</g>
						<g>
							<path style="fill:#59A597;" d="M79.332,198.482c-0.076-0.882-0.154-1.756-0.229-2.652c40.666,20.001,70.666,47.333,90,81.333
								c15.367,27.533,25.18,77.541,20.666,110.668C175.534,360.996,88.585,217.146,79.332,198.482z"/>
						</g>
						<g>
							<g>
								<path style="fill:#27685B;" d="M79.358,198.46c14.057,26.371,29.301,52.145,44.219,78.033
									c17.822,30.927,35.737,61.8,53.75,92.616c3.775,6.458,7.546,12.918,11.363,19.352c0.822,1.385,2.983,0.128,2.159-1.262
									c-32.763-55.212-64.875-110.86-96.448-166.76c-4.355-7.712-8.719-15.425-12.886-23.241
									C80.758,195.776,78.6,197.039,79.358,198.46L79.358,198.46z"/>
							</g>
						</g>
						<g>
							<g>
								<path style="fill:#27685B;" d="M171.187,326.496c0.203,12.078,3.738,23.882,2.667,36c0.627-0.359,1.254-0.72,1.881-1.079
									c-7.538-3.975-13.59-10.002-20.667-14.666c-1.351-0.891-2.601,1.275-1.262,2.158c7.085,4.67,13.119,10.686,20.667,14.666
									c0.886,0.468,1.797-0.128,1.881-1.079c1.072-12.125-2.464-23.92-2.667-36C173.66,324.886,171.16,324.883,171.187,326.496
									L171.187,326.496z"/>
							</g>
						</g>
						<g>
							<g>
								<path style="fill:#27685B;" d="M161.854,300.496c-0.034,11.961-0.655,23.966-3.29,35.668
									c0.513-0.291,1.025-0.582,1.538-0.873c-8.782-3.313-17.897-5.778-26.368-9.874c-1.444-0.699-2.713,1.457-1.262,2.158
									c8.669,4.192,17.978,6.736,26.964,10.126c0.617,0.233,1.398-0.252,1.538-0.873c2.683-11.916,3.343-24.149,3.378-36.332
									C164.358,298.884,161.858,298.884,161.854,300.496L161.854,300.496z"/>
							</g>
						</g>
						<g>
							<g>
								<path style="fill:#27685B;" d="M151.187,274.496c-0.08,15.138-1.917,30.197-2,45.334c0.627-0.359,1.254-0.72,1.881-1.079
									c-9.405-6.603-19.642-11.85-29.333-18c-1.366-0.867-2.619,1.297-1.262,2.158c9.691,6.151,19.928,11.397,29.333,18
									c0.799,0.561,1.876-0.193,1.881-1.079c0.083-15.137,1.92-30.196,2-45.334C153.695,272.884,151.195,272.885,151.187,274.496
									L151.187,274.496z"/>
							</g>
						</g>
						<g>
							<g>
								<path style="fill:#27685B;" d="M134.52,254.496c-0.065,12.696-1.301,25.332-2,38c0.627-0.359,1.254-0.72,1.881-1.079
									c-8.568-4.054-16.509-9.203-24.666-14c-1.393-0.819-2.65,1.342-1.262,2.158c8.157,4.797,16.098,9.946,24.666,14
									c0.873,0.413,1.826-0.084,1.881-1.079c0.699-12.668,1.935-25.304,2-38C137.028,252.884,134.528,252.885,134.52,254.496
									L134.52,254.496z"/>
							</g>
						</g>
						<g>
							<g>
								<path style="fill:#27685B;" d="M119.854,237.163c-0.653,9.771-1.294,19.537-1.334,29.333
									c0.527-0.401,1.055-0.804,1.582-1.205c-7.673-2.748-15.713-4.998-22.368-9.874c-1.303-0.955-2.548,1.216-1.262,2.158
									c6.819,4.997,15.104,7.311,22.964,10.126c0.778,0.279,1.58-0.44,1.582-1.205c0.04-9.797,0.681-19.562,1.334-29.333
									C122.462,235.552,119.961,235.563,119.854,237.163L119.854,237.163z"/>
							</g>
						</g>
						<g>
							<g>
								<path style="fill:#27685B;" d="M105.187,221.163c0.541,6.876-0.623,13.609-1.956,20.335
									c0.612-0.249,1.225-0.498,1.836-0.747c-5.042-2.298-9.489-5.627-13.747-9.137c-1.233-1.017-3.013,0.741-1.768,1.768
									c4.418,3.642,9.019,7.143,14.253,9.529c0.68,0.31,1.666,0.111,1.836-0.747c1.373-6.934,2.602-13.907,2.044-20.999
									C107.562,219.566,105.061,219.554,105.187,221.163L105.187,221.163z"/>
							</g>
						</g>
					</g>
					<path style="fill:#7FC6BA;" d="M133.107,380.66c3.225,0,3.225,5,0,5C129.882,385.66,129.882,380.66,133.107,380.66z"/>
					<path style="fill:#7FC6BA;" d="M120.44,365.994c3.225,0,3.225,5,0,5C117.215,370.994,117.215,365.994,120.44,365.994z"/>
					<path style="fill:#7FC6BA;" d="M117.773,385.326c3.225,0,3.225,5,0,5C114.548,390.326,114.548,385.326,117.773,385.326z"/>
					<path style="fill:#7FC6BA;" d="M101.773,365.994c3.225,0,3.225,5,0,5C98.548,370.994,98.548,365.994,101.773,365.994z"/>
					<path style="fill:#7FC6BA;" d="M97.773,390.66c3.225,0,3.225,5,0,5C94.548,395.66,94.548,390.66,97.773,390.66z"/>
					<path style="fill:#7FC6BA;" d="M84.44,362.66c3.225,0,3.225,5,0,5C81.215,367.66,81.215,362.66,84.44,362.66z"/>
					<path style="fill:#7FC6BA;" d="M77.773,379.326c3.225,0,3.225,5,0,5C74.548,384.326,74.548,379.326,77.773,379.326z"/>
					<path style="fill:#7FC6BA;" d="M68.44,361.994c3.225,0,3.225,5,0,5C65.215,366.994,65.215,361.994,68.44,361.994z"/>
					<path style="fill:#7FC6BA;" d="M61.773,380.66c3.225,0,3.225,5,0,5C58.548,385.66,58.548,380.66,61.773,380.66z"/>
					<path style="fill:#7FC6BA;" d="M48.44,365.326c3.225,0,3.225,5,0,5C45.215,370.326,45.215,365.326,48.44,365.326z"/>
				</g>
			</g>
			<path style="fill:#1D1475;" d="M353.707,426.176c0,5.332-4.387,9.654-9.797,9.654H162.192c-5.41,0-9.796-4.322-9.796-9.654
				V90.817c0-5.332,4.386-9.653,9.796-9.653H343.91c5.41,0,9.797,4.321,9.797,9.653V426.176z"/>
			<path style="fill:#EEEEFF;" d="M346.896,414.83c0,4.971-4.09,9-9.135,9H168.341c-5.044,0-9.133-4.029-9.133-9V102.164
				c0-4.971,4.089-9,9.133-9h169.421c5.045,0,9.135,4.029,9.135,9V414.83z"/>
			<path style="fill:#1D1475;" d="M333.896,304.496c0,4.971-4.029,9-9,9h-58.332c-4.971,0-9-4.029-9-9v-50.332c0-4.971,4.029-9,9-9
				h58.332c4.971,0,9,4.029,9,9V304.496z"/>
			<path style="fill:#FFCE55;" d="M248.73,382.496c0,4.971-4.03,9-9.001,9h-58.333c-4.971,0-9-4.029-9-9v-50.332
				c0-4.971,4.029-9,9-9h58.333c4.971,0,9.001,4.029,9.001,9V382.496z"/>
			<path style="fill:#1D1475;" d="M334.396,382.496c0,4.971-4.029,9-9,9h-58.332c-4.971,0-9-4.029-9-9v-50.332c0-4.971,4.029-9,9-9
				h58.332c4.971,0,9,4.029,9,9V382.496z"/>
			<path style="fill:#2D2B93;" d="M259.184,309.639c1.627,2.33,4.322,3.857,7.381,3.857h58.332c4.971,0,9-4.029,9-9v-50.332
				c0-1.621-0.434-3.139-1.184-4.452C306.98,268.152,282.791,288.572,259.184,309.639z"/>
			<path style="fill:#FFCE55;" d="M316.68,279.33c0,11.572-9.379,20.951-20.949,20.951c-11.57,0-20.951-9.379-20.951-20.951
				c0-11.57,9.381-20.949,20.951-20.949C307.301,258.381,316.68,267.76,316.68,279.33z"/>
			<path style="fill:#7FC6BA;" d="M295.563,279.83v-21.441c-11.492,0.092-20.783,9.428-20.783,20.941
				c0,11.572,9.381,20.951,20.951,20.951c11.402,0,20.656-9.113,20.924-20.451H295.563z"/>
			<path style="fill:#4C38C1;" d="M255.23,131.828c0,1.842-1.492,3.334-3.334,3.334h-79.669c-1.841,0-3.333-1.492-3.333-3.334l0,0
				c0-1.841,1.492-3.333,3.333-3.333h79.669C253.738,128.495,255.23,129.987,255.23,131.828L255.23,131.828z"/>
			<g>
				<defs>
					<path id="SVGID_1_" d="M290.895,199.495c0,4.971-4.029,9-9,9H177.895c-4.971,0-9-4.029-9-9v-41.333c0-4.971,4.029-9,9-9
						h103.999c4.971,0,9,4.029,9,9V199.495z"/>
				</defs>
				<clipPath id="SVGID_00000151516462352912751210000001085119690254673296_">
					<use xlink:href="#SVGID_1_"  style="overflow:visible;"/>
				</clipPath>
				<path style="clip-path:url(#SVGID_00000151516462352912751210000001085119690254673296_);fill:#1D1475;" d="M290.895,199.495
					c0,4.971-4.029,9-9,9H177.895c-4.971,0-9-4.029-9-9v-41.333c0-4.971,4.029-9,9-9h103.999c4.971,0,9,4.029,9,9V199.495z"/>
				<g style="clip-path:url(#SVGID_00000151516462352912751210000001085119690254673296_);">
					<g>
						<path style="fill:#FFCE55;" d="M166.229,199.456c42.222,0,84.444,0,126.666,0c0.806,0,0.806-1.25,0-1.25
							c-42.222,0-84.444,0-126.666,0C165.422,198.206,165.422,199.456,166.229,199.456L166.229,199.456z"/>
					</g>
				</g>
				<g style="clip-path:url(#SVGID_00000151516462352912751210000001085119690254673296_);">
					<path style="fill:#7D72ED;" d="M240.228,174.82c0,5.707-4.626,10.334-10.333,10.334c-5.707,0-10.334-4.627-10.334-10.334
						c0-5.706,4.627-10.333,10.334-10.333C235.602,164.487,240.228,169.114,240.228,174.82z"/>
					<polygon style="fill:#FFCE55;" points="235.561,174.705 231.303,177.163 227.045,179.621 227.045,174.705 227.045,169.788 
						231.303,172.246 					"/>
				</g>
			</g>
			<path style="fill:#FFCE55;" d="M305.064,164.507c0,0.73-0.592,1.322-1.322,1.322h-5.191c-0.728,0-1.322-0.593-1.322-1.322v-5.19
				c0-0.73,0.594-1.322,1.322-1.322h5.191c0.73,0,1.322,0.592,1.322,1.322V164.507z"/>
			<path style="fill:#FF8888;" d="M305.064,181.838c0,0.73-0.592,1.322-1.322,1.322h-5.191c-0.728,0-1.322-0.593-1.322-1.322v-5.19
				c0-0.73,0.594-1.322,1.322-1.322h5.191c0.73,0,1.322,0.592,1.322,1.322V181.838z"/>
			<path style="fill:#7FC6BA;" d="M305.064,199.169c0,0.729-0.592,1.322-1.322,1.322h-5.191c-0.728,0-1.322-0.593-1.322-1.322v-5.19
				c0-0.73,0.594-1.322,1.322-1.322h5.191c0.73,0,1.322,0.592,1.322,1.322V199.169z"/>
			<path style="fill:#A4A0E8;" d="M339.23,161.038c0,0.483-0.391,0.874-0.873,0.874h-27.586c-0.482,0-0.873-0.391-0.873-0.874l0,0
				c0-0.482,0.391-0.873,0.873-0.873h27.586C338.84,160.165,339.23,160.555,339.23,161.038L339.23,161.038z"/>
			<path style="fill:#A4A0E8;" d="M339.23,179.955c0,0.483-0.391,0.874-0.873,0.874h-27.586c-0.482,0-0.873-0.391-0.873-0.874l0,0
				c0-0.482,0.391-0.873,0.873-0.873h27.586C338.84,179.081,339.23,179.472,339.23,179.955L339.23,179.955z"/>
			<path style="fill:#A4A0E8;" d="M339.23,196.871c0,0.483-0.391,0.874-0.873,0.874h-27.586c-0.482,0-0.873-0.391-0.873-0.874l0,0
				c0-0.482,0.391-0.873,0.873-0.873h27.586C338.84,195.998,339.23,196.388,339.23,196.871L339.23,196.871z"/>
			<path style="fill:#A4A0E8;" d="M308.23,217.997c0,1.196-0.971,2.167-2.166,2.167H175.73c-1.196,0-2.167-0.971-2.167-2.167l0,0
				c0-1.196,0.97-2.166,2.167-2.166h130.334C307.26,215.831,308.23,216.8,308.23,217.997L308.23,217.997z"/>
			<path style="fill:#A4A0E8;" d="M308.23,230.664c0,1.196-0.971,2.166-2.166,2.166H175.73c-1.196,0-2.167-0.97-2.167-2.166l0,0
				c0-1.196,0.97-2.167,2.167-2.167h130.334C307.26,228.497,308.23,229.467,308.23,230.664L308.23,230.664z"/>
			<path style="fill:#A4A0E8;" d="M334.209,407.879c0,1.195-1.158,2.166-2.584,2.166H176.148c-1.427,0-2.584-0.971-2.584-2.166l0,0
				c0-1.197,1.157-2.166,2.584-2.166h155.477C333.051,405.713,334.209,406.682,334.209,407.879L334.209,407.879z"/>
			<path style="fill:#A4A0E8;" d="M385.162,235.636l-34.477-32.758c-3.475-3.301-8.967-3.161-12.266,0.313l-16.381,17.238
				c-3.301,3.475-3.16,8.966,0.313,12.266l18.666,17.733l-0.978,4.059l-2.799,11.635l11.475-3.392l4.002-1.184l4.113,3.908
				c3.473,3.301,8.965,3.16,12.266-0.315l16.379-17.238C388.775,244.428,388.635,238.938,385.162,235.636z"/>
			<path style="fill:#1D1475;" d="M366.646,238.836c2.234-4.595-1.09-8.718-5.533-8.305c-1.676,0.155-3.365,0.647-4.984,1.374
				c0.59-1.675,0.941-3.398,0.957-5.08c0.045-4.464-4.34-7.436-8.734-4.828c-3.44,2.044-4.055,6.431-4.176,9.722
				c-0.129,3.478,0.406,6.823,0.84,10.164c-0.078,0.615,0.074,1.19,0.51,1.543c0.387,0.403,0.973,0.509,1.578,0.379
				c3.367,0.157,6.744,0.413,10.199-0.003C360.572,243.41,364.895,242.434,366.646,238.836z"/>
			<path style="fill:#FF8888;" d="M247.23,304.496c0,4.971-4.03,9-9.001,9h-58.333c-4.971,0-9-4.029-9-9v-50.332
				c0-4.971,4.029-9,9-9h58.333c4.971,0,9.001,4.029,9.001,9V304.496z"/>
			<path style="fill:#E26D6D;" d="M170.909,304.744c0.132,4.855,4.101,8.752,8.988,8.752h58.333c4.971,0,9.001-4.029,9.001-9
				v-50.332c0-1.787-0.528-3.449-1.426-4.848C220.76,267.684,195.799,286.166,170.909,304.744z"/>
			<g>
				<circle style="fill:#7D72ED;" cx="209.063" cy="279.33" r="12.922"/>
				<polygon style="fill:#FFCE55;" points="216.147,279.185 210.824,282.26 205.499,285.332 205.499,279.185 205.499,273.037 
					210.824,276.111 				"/>
			</g>
			<rect x="268.896" y="334.496" style="fill:#7FC6BA;" width="10.295" height="46"/>
			<rect x="284.756" y="345.83" style="fill:#FFCE55;" width="10.295" height="34.666"/>
			<rect x="300.484" y="355.83" style="fill:#FF8888;" width="10.295" height="24.666"/>
			<rect x="315.926" y="363.164" style="fill:#A4A0E8;" width="10.295" height="17.332"/>
			<g>
				<path style="fill:#FCFCFC;" d="M322.932,349.326c-8.113-4.844-16.227-9.691-24.338-14.537c-1.125-0.672-2.168,1.072-1.043,1.744
					c8.113,4.848,16.227,9.691,24.34,14.539C323.016,351.744,324.059,350,322.932,349.326z"/>
				<polygon style="fill:#FCFCFC;" points="303.48,332.895 300.512,337.207 297.545,341.522 295.293,336.793 293.043,332.066 
					298.262,332.482 				"/>
			</g>
			<path style="fill:#FCFCFC;" d="M223.563,359.162h-128c-4.971,0-9,4.029-9,9v18c0,4.971,4.029,9,9,9h94.984
				c2.959,7.063,8.849,20,8.849,20l6.251-20h17.916c4.971,0,9-4.029,9-9v-18C232.563,363.191,228.534,359.162,223.563,359.162z"/>
			<path style="fill:#A4A0E8;" d="M225.519,368.43c0,0.795-0.955,1.438-2.133,1.438H95.031c-1.178,0-2.134-0.643-2.134-1.438l0,0
				c0-0.793,0.955-1.436,2.134-1.436h128.354C224.563,366.994,225.519,367.637,225.519,368.43L225.519,368.43z"/>
			<path style="fill:#A4A0E8;" d="M225.519,377.059c0,0.793-0.955,1.436-2.133,1.436H95.031c-1.178,0-2.134-0.643-2.134-1.436l0,0
				c0-0.793,0.955-1.438,2.134-1.438h128.354C224.563,375.621,225.519,376.266,225.519,377.059L225.519,377.059z"/>
			<path style="fill:#A4A0E8;" d="M225.519,385.685c0,0.795-0.955,1.438-2.133,1.438H95.031c-1.178,0-2.134-0.642-2.134-1.438l0,0
				c0-0.793,0.955-1.435,2.134-1.435h128.354C224.563,384.25,225.519,384.893,225.519,385.685L225.519,385.685z"/>
			<path style="fill:#1D1475;" d="M197.229,342.859c0,4.619-3.744,8.363-8.363,8.363h-0.273c-4.619,0-8.363-3.744-8.363-8.363l0,0
				c0-4.619,3.744-8.363,8.363-8.363h0.273C193.485,334.496,197.229,338.24,197.229,342.859L197.229,342.859z"/>
			<path style="fill:#1D1475;" d="M219.896,342.859c0,4.619-3.744,8.363-8.363,8.363h-0.273c-4.619,0-8.363-3.744-8.363-8.363l0,0
				c0-4.619,3.744-8.363,8.363-8.363h0.273C216.152,334.496,219.896,338.24,219.896,342.859L219.896,342.859z"/>
			<path style="fill:#1D1475;" d="M242.563,342.859c0,4.619-3.744,8.363-8.363,8.363h-0.273c-4.619,0-8.363-3.744-8.363-8.363l0,0
				c0-4.619,3.744-8.363,8.363-8.363h0.273C238.819,334.496,242.563,338.24,242.563,342.859L242.563,342.859z"/>
			<path style="fill:#1D1475;" d="M162.121,347.295c0,8.41-6.817,15.227-15.227,15.227c-8.41,0-15.227-6.816-15.227-15.227
				c0-8.41,6.817-15.228,15.227-15.228C155.304,332.066,162.121,338.885,162.121,347.295z"/>
			<polygon style="fill:#FFCE55;" points="147.202,339.912 149.323,344.211 154.065,344.9 150.634,348.244 151.444,352.969 
				147.202,350.738 142.959,352.969 143.77,348.244 140.337,344.9 145.081,344.211 			"/>
			<path style="fill:#1D1475;" d="M300.145,99.83c0,4.971-4.029,9-9,9h-74.082c-4.971,0-9-4.029-9-9v-4.667c0-4.971,4.029-9,9-9
				h74.082c4.971,0,9,4.029,9,9V99.83z"/>
			<path style="fill:#A4A0E8;" d="M260.816,97.752c0,3.087-2.502,5.589-5.587,5.589s-5.587-2.502-5.587-5.589
				c0-3.087,2.502-5.589,5.587-5.589S260.816,94.665,260.816,97.752z"/>
			<g>
				<g>
					<path style="fill:#A4A0E8;" d="M221.563,100.997c3.556,0,7.111,0,10.667,0c3.224,0,3.224-5,0-5c-3.556,0-7.111,0-10.667,0
						C218.338,95.997,218.338,100.997,221.563,100.997L221.563,100.997z"/>
				</g>
			</g>
			<g>
				<g>
					<path style="fill:#A4A0E8;" d="M278.756,100.997c3.556,0,7.112,0,10.668,0c3.225,0,3.225-5,0-5c-3.556,0-7.112,0-10.668,0
						C275.531,95.997,275.531,100.997,278.756,100.997L278.756,100.997z"/>
				</g>
			</g>
		</g>
	</g>
</g>
</svg>
